<?xml version="1.0" standalone="no"?><!DOCTYPE svg PUBLIC "-//W3C//DTD SVG 1.1//EN" "http://www.w3.org/Graphics/SVG/1.1/DTD/svg11.dtd"><svg t="1558400614702" class="icon" style="" viewBox="0 0 1024 1024" version="1.1" xmlns="http://www.w3.org/2000/svg" p-id="1136" xmlns:xlink="http://www.w3.org/1999/xlink" width="200" height="200"><defs><style type="text/css"></style></defs><path d="M512 0a512 512 0 1 0 512 512A512.69622 512.69622 0 0 0 512 0z m321.93201 828.501496l-13.088931 13.924395-3.481099-18.380202a311.906445 311.906445 0 0 0-66.697852-142.725047 30.076693 30.076693 0 0 0-46.089747 38.570574 250.639108 250.639108 0 0 1 57.925483 160.130541 18.937177 18.937177 0 0 1 0 2.784879v5.29127l-4.455806 2.924123a450.871906 450.871906 0 0 1-492.645091 0l-4.455807-2.924123v-7.936905a250.639108 250.639108 0 0 1 250.639108-250.639108 215.828121 215.828121 0 1 0-132.560239-45.950503l12.392711 9.607832-13.924395 6.822954a311.767202 311.767202 0 0 0-170.852325 223.347294l-3.481099 18.380201-13.088931-13.924395a447.251564 447.251564 0 0 1-129.914604-315.805276A451.846614 451.846614 0 1 1 833.93201 828.501496zM356.882241 413.833016a154.978515 154.978515 0 1 1 154.978515 155.117759 155.117759 155.117759 0 0 1-154.978515-155.117759z" p-id="1137" fill="#8a8a8a"></path></svg>