<?xml version="1.0" standalone="no"?><!DOCTYPE svg PUBLIC "-//W3C//DTD SVG 1.1//EN" "http://www.w3.org/Graphics/SVG/1.1/DTD/svg11.dtd"><svg t="1560049600674" class="icon" style="" viewBox="0 0 1024 1024" version="1.1" xmlns="http://www.w3.org/2000/svg" p-id="5763" xmlns:xlink="http://www.w3.org/1999/xlink" width="200" height="200"><defs><style type="text/css"></style></defs><path d="M837.426721 113.639177c-0.928139 0.306992-110.537536 32.329313-161.875784 24.27487-19.522636-2.994194-41.526789-12.499685-66.945715-23.558555-39.97341-17.35425-89.666182-38.940894-156.296719-46.997384-84.495416-10.228969-150.71663 18.901489-182.635597 36.878932l-0.103354 0c-19.113313 0-34.503838 15.392572-34.503838 34.401508l0 6.196119 0 465.588971 0 276.645714-61.264319 0c-19.001773 0-34.395368 15.392572-34.395368 34.402531 0 19.111267 15.392572 34.503838 34.395368 34.503838l472.823746 0c19.009959 0 34.402531-15.392572 34.402531-34.503838 0-19.009959-15.392572-34.402531-34.402531-34.402531L303.96492 887.069351 303.96492 634.491799c27.788903-9.505491 80.58127-24.580838 140.698462-25.724895 44.420699 0 94.113471 18.498306 142.151557 36.366256 41.321104 15.392572 83.98274 31.30396 124.682697 35.743062 8.883321 1.030469 17.356296 1.449002 25.521257 1.449002 82.226746 0 131.296325-44.632523 133.360334-46.381353 7.02295-6.511297 10.94733-15.70775 10.94733-25.315572L881.326557 146.795321c0-10.844999-5.060249-21.073968-13.735839-27.583219C858.913081 112.708991 847.862397 110.534466 837.426721 113.639177L837.426721 113.639177zM812.531727 593.06734c-15.905248 9.711176-48.345078 24.070208-93.489254 19.316951-32.124651-3.50687-69.113077-17.252943-108.158349-31.816636-53.822836-19.940145-109.400642-40.597627-166.219719-40.597627l-4.437056 0c-53.31016 1.031493-102.167914 12.089339-136.26243 22.208814L303.96492 163.945933c23.558555-13.224186 75.30715-36.057217 140.085502-28.198226 56.603159 6.817266 99.377358 25.409716 137.081075 41.73145 28.515451 12.398378 55.469336 24.070208 83.677794 28.507264 39.97341 6.204305 104.641245-5.161556 147.722436-15.07637L812.531727 593.06734 812.531727 593.06734zM812.531727 593.06734" p-id="5764" fill="#ffffff"></path></svg>