<?xml version="1.0" standalone="no"?><!DOCTYPE svg PUBLIC "-//W3C//DTD SVG 1.1//EN" "http://www.w3.org/Graphics/SVG/1.1/DTD/svg11.dtd"><svg t="1560000851163" class="icon" style="" viewBox="0 0 1024 1024" version="1.1" xmlns="http://www.w3.org/2000/svg" p-id="987" xmlns:xlink="http://www.w3.org/1999/xlink" width="200" height="200"><defs><style type="text/css"></style></defs><path d="M840.512 0H183.488C117.568 0.064 64 50.944 64 113.792v796.416c0.064 62.848 53.504 113.728 119.488 113.792h657.024c65.92-0.064 119.424-50.944 119.488-113.792V113.792C959.936 50.944 906.496 0 840.512 0zM631.488 56.896h119.424v227.52l-35.84-45.44c-11.264-14.336-36.544-14.336-47.744 0l-35.84 45.44V56.96zM123.712 910.208V113.792c0.064-31.36 26.816-56.896 59.776-56.96H243.2v910.272h-59.712c-32.96 0-59.712-25.472-59.776-56.896z m776.576 0c-0.064 31.36-26.816 56.896-59.776 56.96h-537.6V56.832h268.8v312.896c0 12.224 8.256 23.104 20.48 27.008 12.16 3.84 25.6-0.128 33.28-9.984l65.728-83.328 65.728 83.392a30.72 30.72 0 0 0 33.28 9.984c12.224-3.84 20.48-14.72 20.48-27.008V56.896h29.888c32.96 0 59.648 25.472 59.712 56.896v796.416z" fill="#4C98F7" p-id="988"></path></svg>