<?xml version="1.0" standalone="no"?><!DOCTYPE svg PUBLIC "-//W3C//DTD SVG 1.1//EN" "http://www.w3.org/Graphics/SVG/1.1/DTD/svg11.dtd"><svg t="1558572223743" class="icon" style="" viewBox="0 0 1024 1024" version="1.1" xmlns="http://www.w3.org/2000/svg" p-id="9021" xmlns:xlink="http://www.w3.org/1999/xlink" width="200" height="200"><defs><style type="text/css"></style></defs><path d="M957.958373 266.096533v581.967204c0 23.69885-20.682484 42.972467-46.105557 42.972467h-799.511094c-25.423073 0-46.105556-19.272593-46.105556-42.972467V266.096533c0-23.708065 20.682484-42.990897 46.105556-42.990897h125.876462v20.177708c0 23.889292 20.907738 43.32366 46.617498 43.32366h43.556082c25.709761 0 46.617499-19.434367 46.617499-43.32366v-20.177708h274.083863v20.177708c0 23.889292 20.907738 43.32366 46.608283 43.32366h43.57656c25.700546 0 46.608284-19.434367 46.608284-43.32366v-20.177708h125.967587c25.422049 0 46.104532 19.282832 46.104533 42.990897z m-68.96994 539.014191V371.257747c0-12.011199-10.515302-21.785208-23.436735-21.785208h-706.910906c-12.921433 0-23.436735 9.774009-23.436735 21.785208v433.852977c0 12.011199 10.515302 21.785208 23.436735 21.785208h706.910906c12.922457 0.001024 23.436735-9.772985 23.436735-21.785208z" fill="#79B2F9" p-id="9022"></path><path d="M826.225287 463.998208c0.419793 6.081879-1.729342 11.640552-6.061401 15.657255l-94.054106 87.429567c-4.330011 4.026941-10.08527 6.243653-16.207081 6.243653-6.122834 0-11.887309-2.216712-16.208105-6.243653l-46.352312-43.086118c-8.937495-8.308829-8.937495-21.824116 0-30.132945l6.246724-5.80543c4.330011-4.025917 10.08527-6.243653 16.196842-6.243652 6.122834 0 11.878094 2.217736 16.208105 6.243652l22.80295 21.196474c0.102389 0.084982 0.26621 0.084982 0.367575 0l71.427264-66.395891c3.93172-3.664486 9.358312-5.68154 15.265106-5.68154 7.014638 0 14.078423 2.826947 19.37191 7.76617l2.693843 2.5034c4.934103 4.575744 7.882893 10.456941 8.302686 16.549058zM751.809301 148.934359v83.898188c0 11.754204-10.279809 21.31934-22.914553 21.31934h-21.96234c-12.644984 0-22.924792-9.565137-22.924793-21.31934v-83.898188c0-11.754204 10.279809-21.310125 22.924793-21.310125h21.96234c12.634745 0 22.914554 9.555922 22.914553 21.310125zM580.810213 657.750076v20.395796c0 11.754204-10.279809 21.31934-22.914553 21.31934h-90.737742c-12.644984 0-22.924792-9.565137-22.924792-21.31934v-20.395796c0-11.754204 10.279809-21.310125 22.924792-21.310125h90.737742c12.634745-0.001024 22.914554 9.554898 22.914553 21.310125zM580.810213 499.079591v20.41525c0 11.744989-10.279809 21.299886-22.914553 21.299886h-90.737742c-12.644984 0-22.924792-9.554898-22.924792-21.299886v-20.41525c0-11.744989 10.279809-21.299886 22.924792-21.299886h90.737742c12.634745 0 22.914554 9.555922 22.914553 21.299886zM375.347145 657.750076v20.395796c0 11.754204-10.279809 21.31934-22.924792 21.31934h-90.726479c-12.644984 0-22.924792-9.565137-22.924792-21.31934v-20.395796c0-11.754204 10.279809-21.310125 22.924792-21.310125h90.726479c12.644984-0.001024 22.924792 9.554898 22.924792 21.310125zM375.347145 499.079591v20.41525c0 11.744989-10.279809 21.299886-22.924792 21.299886h-90.726479c-12.644984 0-22.924792-9.554898-22.924792-21.299886v-20.41525c0-11.744989 10.279809-21.299886 22.924792-21.299886h90.726479c12.644984 0 22.924792 9.555922 22.924792 21.299886zM340.934359 148.934359v83.898188c0 11.754204-10.279809 21.31934-22.924792 21.31934h-21.952101c-12.634745 0-22.914554-9.565137-22.914554-21.31934v-83.898188c0-11.754204 10.279809-21.310125 22.914554-21.310125h21.952101c12.644984 0 22.924792 9.555922 22.924792 21.310125z" fill="#79B2F9" p-id="9023"></path></svg>