<?xml version="1.0" standalone="no"?><!DOCTYPE svg PUBLIC "-//W3C//DTD SVG 1.1//EN" "http://www.w3.org/Graphics/SVG/1.1/DTD/svg11.dtd"><svg t="1560000789434" class="icon" style="" viewBox="0 0 1024 1024" version="1.1" xmlns="http://www.w3.org/2000/svg" p-id="858" xmlns:xlink="http://www.w3.org/1999/xlink" width="200" height="200"><defs><style type="text/css"></style></defs><path d="M957.958 266.097v581.967c0 23.699-20.682 42.972-46.105 42.972H112.342c-25.423 0-46.106-19.272-46.106-42.972V266.097c0-23.709 20.683-42.991 46.106-42.991h125.876v20.177c0 23.89 20.908 43.324 46.618 43.324h43.556c25.71 0 46.617-19.434 46.617-43.324v-20.177h274.084v20.177c0 23.89 20.908 43.324 46.608 43.324h43.577c25.7 0 46.608-19.434 46.608-43.324v-20.177h125.968c25.422 0 46.104 19.282 46.104 42.99z m-68.97 539.014V371.258c0-12.011-10.515-21.785-23.436-21.785H158.64c-12.922 0-23.437 9.774-23.437 21.785V805.11c0 12.01 10.515 21.785 23.437 21.785h706.91c12.923 0.001 23.437-9.773 23.437-21.785z" fill="#4C98F7" p-id="859"></path><path d="M826.225 463.998c0.42 6.082-1.73 11.64-6.061 15.657l-94.054 87.43c-4.33 4.027-10.085 6.244-16.207 6.244-6.123 0-11.888-2.217-16.208-6.244l-46.353-43.086c-8.937-8.309-8.937-21.824 0-30.133l6.247-5.805c4.33-4.026 10.085-6.244 16.197-6.244 6.123 0 11.878 2.218 16.208 6.244l22.803 21.196a0.297 0.297 0 0 0 0.367 0l71.428-66.396c3.931-3.664 9.358-5.681 15.265-5.681 7.014 0 14.078 2.827 19.372 7.766l2.694 2.503c4.934 4.576 7.882 10.457 8.302 16.55zM751.81 148.934v83.899c0 11.754-10.28 21.319-22.914 21.319h-21.963c-12.645 0-22.924-9.565-22.924-21.32v-83.898c0-11.754 10.28-21.31 22.924-21.31h21.963c12.634 0 22.914 9.556 22.914 21.31zM580.81 657.75v20.396c0 11.754-10.28 21.32-22.914 21.32h-90.738c-12.645 0-22.925-9.566-22.925-21.32V657.75c0-11.754 10.28-21.31 22.925-21.31h90.738c12.634-0.001 22.914 9.555 22.914 21.31z m0-158.67v20.415c0 11.745-10.28 21.3-22.914 21.3h-90.738c-12.645 0-22.925-9.555-22.925-21.3V499.08c0-11.745 10.28-21.3 22.925-21.3h90.738c12.634 0 22.914 9.556 22.914 21.3zM375.347 657.75v20.396c0 11.754-10.28 21.32-22.925 21.32h-90.726c-12.645 0-22.925-9.566-22.925-21.32V657.75c0-11.754 10.28-21.31 22.925-21.31h90.726c12.645-0.001 22.925 9.555 22.925 21.31z m0-158.67v20.415c0 11.745-10.28 21.3-22.925 21.3h-90.726c-12.645 0-22.925-9.555-22.925-21.3V499.08c0-11.745 10.28-21.3 22.925-21.3h90.726c12.645 0 22.925 9.556 22.925 21.3z m-34.413-350.146v83.899c0 11.754-10.28 21.319-22.924 21.319h-21.953c-12.634 0-22.914-9.565-22.914-21.32v-83.898c0-11.754 10.28-21.31 22.914-21.31h21.953c12.645 0 22.924 9.556 22.924 21.31z" fill="#4C98F7" p-id="860"></path></svg>