<?xml version="1.0" standalone="no"?><!DOCTYPE svg PUBLIC "-//W3C//DTD SVG 1.1//EN" "http://www.w3.org/Graphics/SVG/1.1/DTD/svg11.dtd"><svg t="1564418001059" class="icon" viewBox="0 0 1024 1024" version="1.1" xmlns="http://www.w3.org/2000/svg" p-id="1555" xmlns:xlink="http://www.w3.org/1999/xlink" width="200" height="200"><defs><style type="text/css"></style></defs><path d="M907.636364 139.636364H116.363636c-51.2 0-93.090909 41.890909-93.090909 93.090909v558.545454c0 51.2 41.890909 93.090909 93.090909 93.090909h791.272728c51.2 0 93.090909-41.890909 93.090909-93.090909V232.727273c0-51.2-41.890909-93.090909-93.090909-93.090909z m46.545454 651.636363c0 25.6-20.945455 46.545455-46.545454 46.545455H116.363636c-25.6 0-46.545455-20.945455-46.545454-46.545455V232.727273c0-25.6 20.945455-46.545455 46.545454-46.545455h791.272728c25.6 0 46.545455 20.945455 46.545454 46.545455v558.545454z" p-id="1556" fill="#4C98F7"></path><path d="M814.545455 293.236364h-209.454546c-13.963636 0-23.272727 9.309091-23.272727 23.272727s9.309091 23.272727 23.272727 23.272727h209.454546c13.963636 0 23.272727-9.309091 23.272727-23.272727s-9.309091-23.272727-23.272727-23.272727zM814.545455 432.872727H209.454545c-13.963636 0-23.272727 9.309091-23.272727 23.272728s9.309091 23.272727 23.272727 23.272727h605.09091c13.963636 0 23.272727-9.309091 23.272727-23.272727s-9.309091-23.272727-23.272727-23.272728zM814.545455 572.509091H209.454545c-13.963636 0-23.272727 9.309091-23.272727 23.272727s9.309091 23.272727 23.272727 23.272727h605.09091c13.963636 0 23.272727-9.309091 23.272727-23.272727s-9.309091-23.272727-23.272727-23.272727zM418.909091 712.145455H209.454545c-13.963636 0-23.272727 9.309091-23.272727 23.272727s9.309091 23.272727 23.272727 23.272727h209.454546c13.963636 0 23.272727-9.309091 23.272727-23.272727s-9.309091-23.272727-23.272727-23.272727z" p-id="1557" fill="#4C98F7"></path></svg>