<?xml version="1.0" standalone="no"?><!DOCTYPE svg PUBLIC "-//W3C//DTD SVG 1.1//EN" "http://www.w3.org/Graphics/SVG/1.1/DTD/svg11.dtd"><svg t="1558572031254" class="icon" style="" viewBox="0 0 1687 1024" version="1.1" xmlns="http://www.w3.org/2000/svg" p-id="2531" xmlns:xlink="http://www.w3.org/1999/xlink" width="329.4921875" height="200"><defs><style type="text/css"></style></defs><path d="M1399.3132577 227.68325571a31.74371858 31.74371858 0 0 0 31.64877238-31.64877167 31.74371858 31.74371858 0 0 0-31.64877238-31.64877236H316.79865747A31.74371858 31.74371858 0 0 0 285.14988512 196.03448403a31.74371858 31.74371858 0 0 0 31.64877235 31.64877168h36.61762939v568.63348858H316.79865747a31.64877233 31.64877233 0 1 0 0 63.29754403h1082.51460023a31.64877233 31.64877233 0 0 0 0-63.29754403h-32.50328836V227.68325571z m-95.80083309 568.63348858h-99.10812982v-25.31901762a12.6595088 12.6595088 0 0 0-12.65950884-12.65950881h-122.78141103a12.6595088 12.6595088 0 0 0-12.65950883 12.65950881v25.31901762H416.71383089V227.68325571h886.79859372z" fill="#79B2F9" p-id="2532"></path><path d="M628.85555019 598.55939185l60.76564241-178.64149416h36.04795135l58.67682339 178.64149416h-31.64877234l-15.27053206-48.02701199h-61.71510604l-15.20723506 48.02701199z m53.80291261-72.23832272h47.97953815l-23.27767169-74.34296566h-1.17100461z m125.9779369 72.23832272V419.91789769h72.15920043q23.34096941 0 37.50379528 11.66257208t14.14700128 32.13932809q0 15.90350781-8.13373437 25.90452026a39.56096511 39.56096511 0 0 1-21.44204355 13.40325469v1.44001934q17.40682486 1.96222359 28.11993399 13.60897243t10.76058293 30.30369926a46.0647877 46.0647877 0 0 1-8.10208589 27.43948514 48.91317722 48.91317722 0 0 1-22.15414028 17.13781009 83.86924628 83.86924628 0 0 1-31.64877233 5.60183275z m31.64877241-103.52313343h24.41702775q36.83917103 0 36.82334644-25.92034484 0-12.2164262-7.50075931-18.60947796t-19.9229019-6.32975408h-33.73759141z m0 79.3118227h27.55025595a97.74723279 97.74723279 0 0 0 17.24858091-1.31342395 46.90348051 46.90348051 0 0 0 13.13424063-4.28840884 20.20774125 20.20774125 0 0 0 8.81418259-8.43439768 27.04387564 27.04387564 0 0 0 3.00663342-13.24501144q0-13.95710883-8.95660259-21.41039436t-24.62274415-7.45328553h-36.09542519zM964.74396805 520.43439765v-21.60028679q0-39.26030182 19.44817074-60.86058862t53.73961491-21.60028682a81.47976399 81.47976399 0 0 1 29.44918253 5.11127636 60.49662766 60.49662766 0 0 1 21.83765306 13.8146888 62.61709586 62.61709586 0 0 1 13.21336224 19.84378026 59.73705717 59.73705717 0 0 1 4.74731538 23.29349632v2.48442851H1076.21094339a37.4563215 37.4563215 0 0 0-10.22255337-26.22100744q-10.2225534-11.07707013-27.9300409-11.07707012-19.13168288 0-30.35117235 14.11535208t-11.20366554 41.31747233v21.31544744q0 27.45530973 11.07707013 40.98515986t30.936675 13.52985012q17.83408288 0 27.7243238-10.00101175a34.22814709 34.22814709 0 0 0 9.90606624-25.06582746h30.88920116v2.61102393a54.97391721 54.97391721 0 0 1-4.47830129 21.79017926 58.78759423 58.78759423 0 0 1-34.81364908 32.72483072 83.28374365 83.28374365 0 0 1-30.06633364 5.17457408q-34.32309333 0-53.64466867-21.33127273T964.82309032 520.43439765z" fill="#79B2F9" p-id="2533"></path></svg>