<?xml version="1.0" standalone="no"?><!DOCTYPE svg PUBLIC "-//W3C//DTD SVG 1.1//EN" "http://www.w3.org/Graphics/SVG/1.1/DTD/svg11.dtd"><svg t="1560000801186" class="icon" style="" viewBox="0 0 1687 1024" version="1.1" xmlns="http://www.w3.org/2000/svg" p-id="859" xmlns:xlink="http://www.w3.org/1999/xlink" width="329.4921875" height="200"><defs><style type="text/css"></style></defs><path d="M1399.313 227.683a31.744 31.744 0 0 0 31.649-31.649 31.744 31.744 0 0 0-31.649-31.648H316.8a31.744 31.744 0 0 0-31.65 31.648 31.744 31.744 0 0 0 31.65 31.65h36.617v568.633H316.8a31.649 31.649 0 1 0 0 63.297h1082.514a31.649 31.649 0 0 0 0-63.297h-32.503V227.683z m-95.8 568.634h-99.109v-25.32a12.66 12.66 0 0 0-12.66-12.659h-122.78a12.66 12.66 0 0 0-12.66 12.66v25.319h-639.59V227.683h886.798z" fill="#4C98F7" p-id="860"></path><path d="M628.856 598.56l60.765-178.642h36.048l58.677 178.641h-31.649l-15.27-48.027h-61.715l-15.208 48.027z m53.802-72.239h47.98l-23.278-74.343h-1.17z m125.978 72.238V419.918h72.16q23.34 0 37.503 11.662t14.147 32.14q0 15.903-8.133 25.904a39.561 39.561 0 0 1-21.442 13.404v1.44q17.406 1.962 28.12 13.609t10.76 30.303a46.065 46.065 0 0 1-8.102 27.44 48.913 48.913 0 0 1-22.154 17.138 83.87 83.87 0 0 1-31.649 5.601z m31.65-103.523h24.416q36.84 0 36.824-25.92 0-12.217-7.501-18.61t-19.923-6.33h-33.738z m0 79.312h27.55a97.747 97.747 0 0 0 17.248-1.313 46.903 46.903 0 0 0 13.134-4.289 20.208 20.208 0 0 0 8.814-8.434 27.044 27.044 0 0 0 3.007-13.245q0-13.957-8.957-21.41t-24.622-7.454h-36.096z m124.458-53.914v-21.6q0-39.26 19.448-60.86t53.74-21.6a81.48 81.48 0 0 1 29.449 5.11 60.497 60.497 0 0 1 21.838 13.815 62.617 62.617 0 0 1 13.213 19.844 59.737 59.737 0 0 1 4.747 23.293v2.485h-30.968a37.456 37.456 0 0 0-10.223-26.221q-10.222-11.077-27.93-11.077-19.131 0-30.35 14.115t-11.204 41.318v21.315q0 27.455 11.077 40.985t30.936 13.53q17.834 0 27.725-10a34.228 34.228 0 0 0 9.906-25.067h30.889v2.611a54.974 54.974 0 0 1-4.478 21.79 58.788 58.788 0 0 1-34.814 32.725 83.284 83.284 0 0 1-30.066 5.175q-34.324 0-53.645-21.331t-19.21-60.355z" fill="#4C98F7" p-id="861"></path></svg>