<?xml version="1.0" standalone="no"?><!DOCTYPE svg PUBLIC "-//W3C//DTD SVG 1.1//EN" "http://www.w3.org/Graphics/SVG/1.1/DTD/svg11.dtd"><svg t="1561439314304" class="icon" viewBox="0 0 1024 1024" version="1.1" xmlns="http://www.w3.org/2000/svg" p-id="1614" xmlns:xlink="http://www.w3.org/1999/xlink" width="200" height="200"><defs><style type="text/css"></style></defs><path d="M713.391 968.924c0 17.153-13.894 31.794-31.034 31.794h-496.54c-85.554 0-170.327-58.197-170.327-143.752v-682.74c0-85.556 84.773-167.039 170.328-167.039h589.64c85.556 0 139.51 81.485 139.51 167.038v31.034c0 17.154-13.331 31.034-30.468 31.034s-30.47-13.88-30.47-31.034v-31.034c0-51.339-27.233-106.101-78.572-106.101h-589.64c-51.339 0-109.391 54.764-109.391 106.101v682.741c0 51.339 58.052 80.164 109.39 80.164h496.54c17.139 0 31.034 14.641 31.034 31.794zM682.357 286.7c0-17.07-13.965-30.469-31.034-30.469H247.886c-17.067 0-31.034 13.399-31.034 30.469 0 17.067 13.965 30.468 31.034 30.468h403.437c17.068 0 31.034-13.399 31.034-30.468zM571.87 502.626c0-16.829-13.642-30.468-30.47-30.468H231.418c-16.83 0-30.468 13.64-30.468 30.468s13.64 30.469 30.468 30.469h309.981c16.829 0 30.468-13.641 30.468-30.469z m-323.983 188.11c-17.067 0-31.034 13.398-31.034 30.468 0 17.067 13.965 30.468 31.034 30.468h186.2c17.07 0 31.035-13.401 31.035-30.468 0-17.071-13.964-30.47-31.034-30.47H247.886z m761.136-268.242V867.33c0 13.366 2.943 26.61-5.088 37.278l-73.847 82.675c-11.85 15.82-28.12 24.852-47.85 24.852-19.728 0-36.918-9.032-48.767-24.822l0.46-0.03-84.767-82.705c-8.017-10.637-19.653-23.882-19.653-37.248V422.496c0-51.34 56.678-105.328 108.016-105.328h93.1c51.34 0 78.395 53.989 78.395 105.328z m-218.577 49.664h154.991v-49.664c0-17.123 2.298-44.39-14.81-44.39h-93.1c-17.107 0-47.08 27.267-47.08 44.39v49.664z m154.991 395.203V535.744H790.445V867.33l85.561 82.706-4.04 0.091 73.47-82.766z" p-id="1615" fill="#4C98F7"></path></svg>