<?xml version="1.0" standalone="no"?><!DOCTYPE svg PUBLIC "-//W3C//DTD SVG 1.1//EN" "http://www.w3.org/Graphics/SVG/1.1/DTD/svg11.dtd"><svg t="1560000861099" class="icon" style="" viewBox="0 0 1024 1024" version="1.1" xmlns="http://www.w3.org/2000/svg" p-id="1363" xmlns:xlink="http://www.w3.org/1999/xlink" width="200" height="200"><defs><style type="text/css"></style></defs><path d="M436.663 986.149c-20.114 0-36.572-16.458-36.572-36.572V749.35c0-24.503 4.023-58.332 23.772-80.823L841.874 181.21 114.47 570.514l231.68 74.606c19.2 6.217 29.805 26.88 23.588 46.08-6.217 19.2-26.88 29.806-46.08 23.589L38.95 622.994C5.303 612.571 0.73 587.52 0.183 580.206c-0.549-7.315 0-32.549 31.268-48.275l915.2-489.691c10.423-5.669 22.492-5.669 32.549-1.097 7.863-0.914 15.543 0.548 22.674 4.206 8.96 4.571 28.709 19.382 19.932 55.954L878.263 833.829c-0.183 0.548-0.183 1.097-0.366 1.645-4.937 19.932-17.371 36.755-34.194 46.08-15.177 8.595-32.732 10.423-49.189 5.12l-285.257-89.051c-19.2-6.034-29.988-26.514-23.954-45.897 6.034-19.2 26.514-29.989 45.897-23.955l276.663 86.492L930.01 191.086 479.086 716.25c-1.829 2.378-6.035 14.08-6.035 33.098v200.228c0.183 20.114-16.274 36.572-36.388 36.572z" fill="#4C98F7" p-id="1364"></path></svg>