<?xml version="1.0" standalone="no"?><!DOCTYPE svg PUBLIC "-//W3C//DTD SVG 1.1//EN" "http://www.w3.org/Graphics/SVG/1.1/DTD/svg11.dtd"><svg t="1560000863957" class="icon" style="" viewBox="0 0 1024 1024" version="1.1" xmlns="http://www.w3.org/2000/svg" p-id="1488" xmlns:xlink="http://www.w3.org/1999/xlink" width="200" height="200"><defs><style type="text/css"></style></defs><path d="M704 697.6c-6.4-6.4-12.8-12.8-25.6-19.2H640c-25.6 0-32 6.4-38.4 6.4l-6.4 6.4H608c32 0 64 6.4 96 6.4zM518.4 460.8c-6.4 0-19.2 6.4-25.6 12.8l6.4-12.8c-32 12.8-57.6 32-76.8 57.6-19.2 25.6-32 44.8-32 64 0 12.8 6.4 19.2 19.2 19.2 12.8 0 32-6.4 57.6-25.6 25.6-12.8 38.4-32 57.6-51.2s19.2-38.4 19.2-51.2c-6.4-12.8-12.8-12.8-25.6-12.8z m83.2 128c12.8 0 32-6.4 57.6-25.6 25.6-12.8 38.4-32 57.6-51.2 12.8-19.2 19.2-38.4 19.2-51.2 0-12.8-6.4-12.8-12.8-12.8s-19.2 6.4-32 12.8l6.4-12.8c-32 12.8-57.6 32-83.2 57.6s-32 51.2-32 70.4c0 6.4 6.4 12.8 19.2 12.8z" fill="#4C98F7" p-id="1489"></path><path d="M678.4 64H185.6c-19.2 0-32 19.2-32 38.4V928c0 19.2 19.2 38.4 38.4 38.4h652.8c19.2 0 38.4-19.2 38.4-38.4V256L678.4 64zM640 448c25.6-12.8 44.8-25.6 64-25.6 12.8 0 25.6 6.4 25.6 12.8 6.4 0 12.8 6.4 12.8 12.8s6.4 12.8 6.4 19.2c0 19.2-6.4 44.8-19.2 70.4-12.8 25.6-32 44.8-57.6 57.6-19.2 12.8-44.8 25.6-57.6 25.6-12.8-6.4-25.6-6.4-38.4-19.2-12.8-6.4-19.2-19.2-19.2-38.4s6.4-38.4 25.6-64c12.8-19.2 32-38.4 57.6-51.2z m-281.6 19.2c0 6.4-6.4 19.2-19.2 38.4-19.2 25.6-32 51.2-38.4 70.4-12.8 19.2-12.8 32-12.8 38.4 0 6.4 6.4 12.8 6.4 12.8s0 6.4-6.4 6.4-12.8 0-19.2-6.4c-12.8-6.4-19.2-12.8-19.2-19.2 0-12.8 6.4-32 19.2-64 12.8-25.6 32-51.2 51.2-76.8-12.8 0-32 12.8-44.8 19.2v-12.8c25.6-19.2 51.2-32 70.4-44.8 6.4 12.8 12.8 19.2 12.8 25.6v12.8zM480 601.6c-19.2 12.8-44.8 25.6-57.6 25.6-12.8 0-32-6.4-38.4-12.8-19.2-12.8-19.2-25.6-25.6-38.4 0-19.2 6.4-38.4 25.6-64 19.2-25.6 38.4-38.4 64-57.6 25.6-12.8 44.8-25.6 64-25.6 12.8 0 25.6 6.4 25.6 12.8 6.4 0 12.8 6.4 12.8 12.8s6.4 12.8 6.4 19.2c0 19.2-6.4 44.8-19.2 70.4-19.2 19.2-32 44.8-57.6 57.6zM768 672c-6.4 0-6.4 6.4-12.8 6.4h-57.6c12.8 6.4 25.6 19.2 38.4 25.6 0 12.8-6.4 19.2-12.8 19.2s-6.4 6.4-12.8 6.4H588.8c-25.6 0-32 6.4-38.4 6.4l-12.8 12.8h-6.4c0-6.4-6.4-12.8-6.4-19.2 0-12.8 0-19.2 6.4-19.2 6.4-6.4 19.2-6.4 38.4-6.4 0-6.4-6.4-12.8-6.4-19.2 0-12.8 0-19.2 6.4-19.2 12.8-6.4 32-12.8 57.6-12.8 32 0 57.6 0 96 6.4 12.8-19.2-6.4-32-19.2-44.8l12.8-6.4c25.6 12.8 51.2 32 70.4 44.8-6.4 12.8-12.8 19.2-19.2 19.2z m-89.6-409.6V121.6l147.2 147.2H678.4z" fill="#4C98F7" p-id="1490"></path><path d="M659.2 665.6c6.4 6.4 12.8 6.4 12.8 12.8h25.6c-12.8-6.4-19.2-12.8-32-19.2l-6.4 6.4z m-64 32c0-6.4-6.4-6.4 0 0-6.4 0-6.4 0 0 0-6.4 0-6.4 0 0 0z" fill="#4C98F7" p-id="1491"></path></svg>