<?xml version="1.0" standalone="no"?><!DOCTYPE svg PUBLIC "-//W3C//DTD SVG 1.1//EN" "http://www.w3.org/Graphics/SVG/1.1/DTD/svg11.dtd"><svg t="1560000847558" class="icon" style="" viewBox="0 0 1024 1024" version="1.1" xmlns="http://www.w3.org/2000/svg" p-id="862" xmlns:xlink="http://www.w3.org/1999/xlink" width="200" height="200"><defs><style type="text/css"></style></defs><path d="M486.9 113.9l-16-6.3-156-41.6c-29.7-7.8-48.6 3-56.5 32.4l-185.8 772c-7.8 30.1 2.9 49 32.7 57.2l156 41.6c30.1 8.2 49.1-3 56.9-33.1L504 164.5c6.4-23.8 0.7-40.5-17.1-50.6z m-75.8 268.6c-1.8 7-5.6 13-11.1 17.8-5.2 4.1-10.4 5.2-15.2 4.1h-1.3L242 366.2c-5.5-1.5-9.3-5.2-11.5-11.5-1.3-3.1-2.1-6.5-2.2-10-0.2-3.4 0.1-7 1.1-10.5 1.9-7.4 5.6-13 11.1-17.1 4.8-4.8 10.4-6.3 16-4.8L398 350.6h0.7c0.9 0.3 1.6 1.1 2.5 1.6 3.5 2.1 6.6 5.1 8.7 10.2 1.3 3 2.1 6.1 2.2 9.5 0.3 3.5-0.1 7-1 10.6z m23.9-93.3c-0.2 2-0.2 3.9-0.8 6.1-1.3 5.1-4 9.3-7.3 12.9-1.3 1.4-2.3 3-3.9 4.2-1.5 1.4-3 2-4.6 2.8-3.5 1.8-6.9 2.8-10.3 2h-0.8l-141.5-37.9c-5.6-1.8-9.7-5.9-12.3-12.3-1.8-4.5-2-9.3-1.4-14.2 0.2-1.9 0.2-3.8 0.7-5.9 0.7-2.1 1.7-3.8 2.6-5.7 2.2-4.7 4.9-8.8 8.6-11.8 5.3-4.4 10.8-5.9 16.3-4.1l141.5 37.9h0.7c3.2 1.2 5.6 3.7 7.7 6.6 1.1 1.5 2.2 3 3.1 4.9 1.3 3.1 2 6.4 2.2 9.8 0.1 1.6-0.4 3.2-0.5 4.7z m326.5-153.5M593.7 967.5c-21.2 0-38.3-17.2-38.3-38.3V164.4c0-21.2 17.2-38.3 38.3-38.3 21.2 0 38.3 17.2 38.3 38.3v764.8c0 21.1-17.1 38.3-38.3 38.3z m154.7 0c-21.2 0-38.3-17.2-38.3-38.3V164.4c0-21.2 17.2-38.3 38.3-38.3 21.2 0 38.3 17.2 38.3 38.3v764.8c0 21.1-17.1 38.3-38.3 38.3z m152.7 0c-21.2 0-38.3-17.2-38.3-38.3V164.4c0-21.2 17.2-38.3 38.3-38.3 21.2 0 38.3 17.2 38.3 38.3v764.8c0 21.1-17.1 38.3-38.3 38.3z" fill="#4C98F7" p-id="863"></path></svg>