<?xml version="1.0" standalone="no"?><!DOCTYPE svg PUBLIC "-//W3C//DTD SVG 1.1//EN" "http://www.w3.org/Graphics/SVG/1.1/DTD/svg11.dtd"><svg t="1560000854665" class="icon" style="" viewBox="0 0 1024 1024" version="1.1" xmlns="http://www.w3.org/2000/svg" p-id="1112" xmlns:xlink="http://www.w3.org/1999/xlink" width="200" height="200"><defs><style type="text/css"></style></defs><path d="M843.52 180.48c-90.88-90.88-240.64-90.88-331.52 0l-99.84 99.84c-90.88 90.88-90.88 240.64 0 331.52 14.08 14.08 29.44 26.88 47.36 37.12 23.04 12.8 51.2 5.12 64-16.64 12.8-23.04 5.12-51.2-16.64-64-10.24-6.4-19.2-12.8-28.16-21.76a139.834 139.834 0 0 1 0-198.4l99.84-99.84c55.04-55.04 143.36-55.04 198.4 0s55.04 143.36 0 198.4l-49.92 49.92c-17.92 17.92-17.92 47.36 0 66.56 17.92 17.92 47.36 17.92 66.56 0l49.92-49.92c90.88-92.16 90.88-241.92 0-332.8z" fill="#4C98F7" p-id="1113"></path><path d="M564.48 376.32c-23.04-12.8-51.2-5.12-64 16.64-12.8 23.04-5.12 51.2 16.64 64 10.24 6.4 19.2 12.8 28.16 21.76a139.834 139.834 0 0 1 0 198.4l-99.84 99.84a139.834 139.834 0 0 1-198.4 0 139.834 139.834 0 0 1 0-198.4l49.92-49.92c17.92-17.92 17.92-47.36 0-66.56-17.92-17.92-47.36-17.92-66.56 0L180.48 512c-90.88 90.88-90.88 240.64 0 331.52s240.64 90.88 331.52 0l98.56-99.84c90.88-90.88 90.88-240.64 0-331.52-14.08-14.08-29.44-26.88-46.08-35.84z" fill="#4C98F7" p-id="1114"></path></svg>