<?xml version="1.0" standalone="no"?><!DOCTYPE svg PUBLIC "-//W3C//DTD SVG 1.1//EN" "http://www.w3.org/Graphics/SVG/1.1/DTD/svg11.dtd"><svg t="1560000857838" class="icon" style="" viewBox="0 0 1024 1024" version="1.1" xmlns="http://www.w3.org/2000/svg" p-id="1238" xmlns:xlink="http://www.w3.org/1999/xlink" width="200" height="200"><defs><style type="text/css"></style></defs><path d="M761.044 738.972a33.758 33.758 0 0 0-12.365 66.527c96.575 18.796 154.2 49.462 154.2 64.796 0 3.462-5.07 8.532-18.673 18.796a315.695 315.695 0 0 1-81.366 34.129c-75.678 22.258-179.55 34.253-289.232 34.253s-215.163-12.366-289.728-34.13a315.695 315.695 0 0 1-81.366-34.129c-15.21-10.263-20.28-15.333-20.28-18.795 0-13.603 52.555-42.662 140.598-61.829a32.645 32.645 0 0 0 25.35-40.93 30.172 30.172 0 0 0-38.829-25.72C128.665 768.03 54.471 808.96 54.471 870.418 54.47 966.005 257.762 1024 512 1024s457.53-57.995 457.53-153.581c0-63.189-79.636-105.85-208.362-131.447zM255.413 476.078l229.135 368.744a30.543 30.543 0 0 0 54.78 0l229.136-368.744a305.679 305.679 0 1 0-511.938 0zM512 167.43a140.35 140.35 0 1 1-139.36 140.35A139.856 139.856 0 0 1 512 167.431z" fill="#4C98F7" p-id="1239"></path></svg>