<?xml version="1.0" standalone="no"?><!DOCTYPE svg PUBLIC "-//W3C//DTD SVG 1.1//EN" "http://www.w3.org/Graphics/SVG/1.1/DTD/svg11.dtd"><svg t="1558572268596" class="icon" style="" viewBox="0 0 1024 1024" version="1.1" xmlns="http://www.w3.org/2000/svg" p-id="9852" xmlns:xlink="http://www.w3.org/1999/xlink" width="200" height="200"><defs><style type="text/css"></style></defs><path d="M761.044318 738.971622a33.758242 33.758242 0 0 0-12.365656 66.527231c96.575776 18.795798 154.199734 49.462625 154.199734 64.796039 0 3.462384-5.069919 8.532303-18.672141 18.795798a315.695206 315.695206 0 0 1-81.366018 34.129211c-75.677817 22.258181-179.54933 34.252868-289.232702 34.252868s-215.16242-12.365656-289.727327-34.129211a315.695206 315.695206 0 0 1-81.366019-34.129212c-15.209757-10.263495-20.279676-15.333414-20.279676-18.795798 0-13.602222 52.554039-42.661514 140.597512-61.828281a32.645333 32.645333 0 0 0 25.349596-40.930323A30.172201 30.172201 0 0 0 249.35346 741.939379C128.664654 768.030914 54.470716 808.961237 54.470716 870.418548c0 95.586523 203.29139 153.581452 457.529284 153.581452s457.529284-57.994928 457.529284-153.581452c0-63.188504-79.634827-105.850018-208.361309-131.446926zM255.412631 476.077768l229.135612 368.743872a30.543171 30.543171 0 0 0 54.779857 0L768.463712 476.077768a305.679024 305.679024 0 1 0-511.938172 0zM512 167.430987a140.350199 140.350199 0 1 1-139.360947 140.350199A139.855573 139.855573 0 0 1 512 167.430987z" fill="#79B2F9" p-id="9853"></path></svg>