<?xml version="1.0" standalone="no"?><!DOCTYPE svg PUBLIC "-//W3C//DTD SVG 1.1//EN" "http://www.w3.org/Graphics/SVG/1.1/DTD/svg11.dtd"><svg t="1563711785437" class="icon" viewBox="0 0 1024 1024" version="1.1" xmlns="http://www.w3.org/2000/svg" p-id="3160" xmlns:xlink="http://www.w3.org/1999/xlink" width="200" height="200"><defs><style type="text/css"></style></defs><path d="M826.593 196.821L574.742 764.886l-32.098-229.027-6.696-47.776-47.773-6.718-228.972-32.197 567.39-252.347M901.351 96c-3.558 0-7.147 0.727-10.538 2.216L112.052 444.569c-10.588 4.721-16.798 15.868-15.169 27.372 1.603 11.503 10.613 20.539 22.117 22.142l360.264 50.658 50.572 360.849c1.603 11.504 10.639 20.538 22.117 22.142 1.222 0.177 2.418 0.254 3.615 0.254 10.155 0 19.495-5.968 23.721-15.45l345.809-779.989c4.352-9.848 2.24-21.352-5.371-28.949A25.952 25.952 0 0 0 901.351 96z" p-id="3161" fill="#4C98F7"></path></svg>