<?xml version="1.0" standalone="no"?><!DOCTYPE svg PUBLIC "-//W3C//DTD SVG 1.1//EN" "http://www.w3.org/Graphics/SVG/1.1/DTD/svg11.dtd"><svg t="1558409705232" class="icon" style="" viewBox="0 0 1064 1024" version="1.1" xmlns="http://www.w3.org/2000/svg" p-id="8329" xmlns:xlink="http://www.w3.org/1999/xlink" width="207.8125" height="200"><defs><style type="text/css"></style></defs><path d="M531.6608 595.483927h-4.170473c17.252848 0 41.903321 10.997139 41.903321 28.225164v148.945454c0 17.252848-24.625648 31.427491-41.903321 31.427491h4.170473c-17.252848 0-36.739879-14.149818-36.739879-31.427491v-148.945454c0-17.2032 19.48703-28.225164 36.739879-28.225164z m335.623758-95.896048v347.539394c0 22.391467-27.257018 49.648485-49.648485 49.648485h-570.957576c-22.391467 0-49.648485-27.257018-49.648485-49.648485v-347.539394h670.254546m49.648484-49.648485h-769.551515v397.187879c0 56.872339 46.495806 99.29697 105.081018 99.296969h559.389479c56.872339 0 105.105842-46.545455 105.105843-103.417794l-0.024825-393.067054-1.663224 3.202327 1.663224-3.202327z m-74.472727 0h-49.648485v-49.648485c0-141.324412-140.356267-273.066667-273.066666-273.066667-136.136145 0-248.242424 136.930521-248.242425 273.066667v49.648485h-49.648484v-49.648485c0-170.617018 127.273891-322.715152 297.890909-322.715151 168.904145 0 322.715152 145.196994 322.715151 322.715151v49.648485z m0 0" p-id="8330" fill="#8a8a8a"></path></svg>