<?xml version="1.0" standalone="no"?><!DOCTYPE svg PUBLIC "-//W3C//DTD SVG 1.1//EN" "http://www.w3.org/Graphics/SVG/1.1/DTD/svg11.dtd"><svg t="1560056807787" class="icon" style="" viewBox="0 0 1024 1024" version="1.1" xmlns="http://www.w3.org/2000/svg" p-id="2009" xmlns:xlink="http://www.w3.org/1999/xlink" width="200" height="200"><defs><style type="text/css"></style></defs><path d="M933.5 263.7L793.6 114.9c16.4-8.2 34.6-12.4 52.9-12.3 60.7 0 110 44.7 110 99.9 0 23.1-8.6 44.3-23 61.2z m-20.2 261.6c0 221-181.3 400.2-404.9 400.2-223.6 0-404.9-179.2-404.9-400.2s181.3-400.2 404.9-400.2c223.7 0.1 404.9 179.2 404.9 400.2zM508.5 198.9c-182.4 0-330.2 146.1-330.2 326.4 0 180.3 147.8 326.4 330.2 326.4 182.4 0 330.2-146.1 330.2-326.4 0-180.2-147.9-326.4-330.2-326.4z m-35.2 485c-0.1 1.1-130-111-165.7-146.1-43.5-42.8 13.7-86.2 49.4-51 30 29.6 117.1 103.7 116.3 102.8 0 0 165.7-137.3 194.8-165.8 40.3-39.4 84.7 9.9 51.3 42.7-42.1 41.5-248.6 219.8-246.1 217.4zM60.5 202.5c0-55.2 49.2-99.9 110-99.9 19.2 0 37.2 4.5 52.9 12.3L83.5 263.7c-14.4-16.9-23-38.1-23-61.2z" p-id="2010" fill="#4C98F7"></path></svg>