<?xml version="1.0" standalone="no"?><!DOCTYPE svg PUBLIC "-//W3C//DTD SVG 1.1//EN" "http://www.w3.org/Graphics/SVG/1.1/DTD/svg11.dtd"><svg t="1558498640471" class="icon" style="" viewBox="0 0 1024 1024" version="1.1" xmlns="http://www.w3.org/2000/svg" p-id="2065" xmlns:xlink="http://www.w3.org/1999/xlink" width="200" height="200"><defs><style type="text/css"></style></defs><path d="M713.5 64.2h44.8v134.4h-44.8V64.2zM310.5 64.2h44.8v134.4h-44.8V64.2zM108.9 355.3H915v559.8H108.9V355.3z" fill="#4C98F7" p-id="2066"></path><path d="M504.2 822.2c-15.6 15.7-42.8 15.7-58.4 0L309.5 688.9c-15.6-15.7-15.6-43.1 0-58.8 15.6-15.7 42.8-15.7 58.4 0L473.1 732l202.5-199.9c15.6-15.7 42.8-15.7 58.4 0 15.6 15.7 15.6 43.1 0 58.8L504.2 822.2z" fill="#FFFFFF" p-id="2067"></path><path d="M847.9 153.7c24.7 0 44.8 20.1 44.8 44.8v671.8c0 24.7-20.1 44.8-44.8 44.8H176.1c-24.7 0-44.8-20.1-44.8-44.8V198.5c0-24.7 20.1-44.8 44.8-44.8h671.8m0-44.8H176.1c-49.5 0-89.6 40.1-89.6 89.6v671.8c0 49.5 40.1 89.6 89.6 89.6h671.8c49.5 0 89.6-40.1 89.6-89.6V198.5c0-49.5-40.1-89.6-89.6-89.6z" fill="#4C98F7" p-id="2068"></path></svg>