<?xml version="1.0" standalone="no"?><!DOCTYPE svg PUBLIC "-//W3C//DTD SVG 1.1//EN" "http://www.w3.org/Graphics/SVG/1.1/DTD/svg11.dtd"><svg t="1560000542016" class="icon" style="" viewBox="0 0 1024 1024" version="1.1" xmlns="http://www.w3.org/2000/svg" p-id="2117" xmlns:xlink="http://www.w3.org/1999/xlink" width="200" height="200"><defs><style type="text/css"></style></defs><path d="M422.72 689.81a29.59 29.59 0 1 1 0 59.18h-148a29.59 29.59 0 1 1 0-59.18z m-148-148H481.9V601H274.76a29.59 29.59 0 0 1 0-59.18z m591.87-118.33H156.4v384.69a59.18 59.18 0 0 0 59.18 59.18H481.9v59.18H186a88.77 88.77 0 0 1-88.77-88.77V245.94A88.77 88.77 0 0 1 186 157.16h118.35v-29.59a29.59 29.59 0 1 1 59.18 0v29.59h295.92v-29.59a29.59 29.59 0 1 1 59.18 0v29.59H837a88.77 88.77 0 0 1 88.77 88.77v266.33h-59.18z m0-148a59.18 59.18 0 0 0-59.18-59.18h-88.78v29.59a29.59 29.59 0 1 1-59.18 0v-29.55H363.54v29.59a29.59 29.59 0 1 1-59.18 0v-29.59h-88.78a59.18 59.18 0 0 0-59.18 59.18v88.78h710.19z m-148 236.73a207.14 207.14 0 1 1-207.1 207.19 207.06 207.06 0 0 1 207.14-207.14z m0 355.1a148 148 0 1 0-148-148 148 148 0 0 0 148.04 148.04z m0-236.73a29.59 29.59 0 0 1 29.59 29.59v59.23h29.59a29.59 29.59 0 1 1 0 59.18h-59.14A29.59 29.59 0 0 1 689 749v-88.79a29.59 29.59 0 0 1 29.63-29.59z" p-id="2118" fill="#4C98F7"></path></svg>