<?xml version="1.0" standalone="no"?><!DOCTYPE svg PUBLIC "-//W3C//DTD SVG 1.1//EN" "http://www.w3.org/Graphics/SVG/1.1/DTD/svg11.dtd"><svg t="1560049575381" class="icon" style="" viewBox="0 0 1024 1024" version="1.1" xmlns="http://www.w3.org/2000/svg" p-id="4973" xmlns:xlink="http://www.w3.org/1999/xlink" width="200" height="200"><defs><style type="text/css"></style></defs><path d="M569.389058 511.983627l293.295929-293.28365c15.871479-15.870456 15.871479-41.516556 0-57.387012-15.871479-15.870456-41.518602-15.870456-57.389058 0L512 454.596615 218.704071 161.313989c-15.871479-15.870456-41.518602-15.870456-57.389058 0-15.871479 15.870456-15.871479 41.516556 0 57.387012L454.609918 511.983627 161.313989 805.267277c-15.871479 15.870456-15.871479 41.516556 0 57.387012 7.872295 7.871271 18.283412 11.93482 28.694529 11.93482 10.411117 0 20.822235-3.935636 28.694529-11.93482L512 569.370639l293.295929 293.28365c7.872295 7.871271 18.283412 11.93482 28.694529 11.93482 10.411117 0 20.823258-3.935636 28.694529-11.93482 15.871479-15.870456 15.871479-41.516556 0-57.387012L569.389058 511.983627 569.389058 511.983627z" p-id="4974" fill="#ffffff"></path></svg>